<svg xmlns="http://www.w3.org/2000/svg" viewBox="157.08 201.4 558.97 315.48" xmlns:v="https://vecta.io/nano"><defs><clipPath id="A"><path d="M0 623.62h623.62V0H0z" transform="translate(-171.943 -384.511)"/></clipPath><clipPath id="B"><path d="M0 623.62h623.62V0H0z" transform="translate(-171.943 -384.511)"/></clipPath><clipPath id="C"><path d="M176.968 390.108c-4.796-1.362-5.028-4.824-5.028-5.487h0l.003-.11h0v-49.227l-.003-.111h0c0-.663.232-4.128 5.022-5.492h0c9.718-2.758 60.802-17.544 134.886-17.544h0c74.086 0 125.083 14.786 134.8 17.544h0c4.794 1.364 5.028 4.829 5.028 5.492h0c0 .072-.003.111-.003.111h0l.005 49.227s.002.039.002.11h0c0 .663-.235 4.125-5.032 5.487h0c-9.714 2.762-60.795 17.54-134.878 17.54h0c-74.088 0-125.086-14.778-134.802-17.54"/></clipPath><clipPath id="D"><path d="M176.968 390.108c-4.796-1.362-5.028-4.824-5.028-5.487h0l.003-.11h0v-49.227l-.003-.111h0c0-.663.232-4.128 5.022-5.492h0c9.718-2.758 60.802-17.544 134.886-17.544h0c74.086 0 125.083 14.786 134.8 17.544h0c4.794 1.364 5.028 4.829 5.028 5.492h0c0 .072-.003.111-.003.111h0l.005 49.227s.002.039.002.11h0c0 .663-.235 4.125-5.032 5.487h0c-9.714 2.762-60.795 17.54-134.878 17.54h0c-74.088 0-125.086-14.778-134.802-17.54" transform="translate(-536.986 -394.119)"/></clipPath><clipPath id="E"><path d="M176.968 390.108c-4.796-1.362-5.028-4.824-5.028-5.487h0l.003-.11h0v-49.227l-.003-.111h0c0-.663.232-4.128 5.022-5.492h0c9.718-2.758 60.802-17.544 134.886-17.544h0c74.086 0 125.083 14.786 134.8 17.544h0c4.794 1.364 5.028 4.829 5.028 5.492h0c0 .072-.003.111-.003.111h0l.005 49.227s.002.039.002.11h0c0 .663-.235 4.125-5.032 5.487h0c-9.714 2.762-60.795 17.54-134.878 17.54h0c-74.088 0-125.086-14.778-134.802-17.54" transform="translate(-536.333 -394.066)"/></clipPath><clipPath id="F"><path d="M176.968 390.108c-4.796-1.362-5.028-4.824-5.028-5.487h0l.003-.11h0v-49.227l-.003-.111h0c0-.663.232-4.128 5.022-5.492h0c9.718-2.758 60.802-17.544 134.886-17.544h0c74.086 0 125.083 14.786 134.8 17.544h0c4.794 1.364 5.028 4.829 5.028 5.492h0c0 .072-.003.111-.003.111h0l.005 49.227s.002.039.002.11h0c0 .663-.235 4.125-5.032 5.487h0c-9.714 2.762-60.795 17.54-134.878 17.54h0c-74.088 0-125.086-14.778-134.802-17.54" transform="translate(-535.711 -394.027)"/></clipPath><clipPath id="G"><path d="M176.968 390.108c-4.796-1.362-5.028-4.824-5.028-5.487h0l.003-.11h0v-49.227l-.003-.111h0c0-.663.232-4.128 5.022-5.492h0c9.718-2.758 60.802-17.544 134.886-17.544h0c74.086 0 125.083 14.786 134.8 17.544h0c4.794 1.364 5.028 4.829 5.028 5.492h0c0 .072-.003.111-.003.111h0l.005 49.227s.002.039.002.11h0c0 .663-.235 4.125-5.032 5.487h0c-9.714 2.762-60.795 17.54-134.878 17.54h0c-74.088 0-125.086-14.778-134.802-17.54" transform="translate(-533.999 -394.02)"/></clipPath><clipPath id="H"><path d="M176.968 390.108c-4.796-1.362-5.028-4.824-5.028-5.487h0l.003-.11h0v-49.227l-.003-.111h0c0-.663.232-4.128 5.022-5.492h0c9.718-2.758 60.802-17.544 134.886-17.544h0c74.086 0 125.083 14.786 134.8 17.544h0c4.794 1.364 5.028 4.829 5.028 5.492h0c0 .072-.003.111-.003.111h0l.005 49.227s.002.039.002.11h0c0 .663-.235 4.125-5.032 5.487h0c-9.714 2.762-60.795 17.54-134.878 17.54h0c-74.088 0-125.086-14.778-134.802-17.54" transform="translate(-532.29 -394.02)"/></clipPath><clipPath id="I"><path d="M176.968 390.108c-4.796-1.362-5.028-4.824-5.028-5.487h0l.003-.11h0v-49.227l-.003-.111h0c0-.663.232-4.128 5.022-5.492h0c9.718-2.758 60.802-17.544 134.886-17.544h0c74.086 0 125.083 14.786 134.8 17.544h0c4.794 1.364 5.028 4.829 5.028 5.492h0c0 .072-.003.111-.003.111h0l.005 49.227s.002.039.002.11h0c0 .663-.235 4.125-5.032 5.487h0c-9.714 2.762-60.795 17.54-134.878 17.54h0c-74.088 0-125.086-14.778-134.802-17.54" transform="translate(-530.573 -393.964)"/></clipPath><clipPath id="J"><path d="M176.968 390.108c-4.796-1.362-5.028-4.824-5.028-5.487h0l.003-.11h0v-49.227l-.003-.111h0c0-.663.232-4.128 5.022-5.492h0c9.718-2.758 60.802-17.544 134.886-17.544h0c74.086 0 125.083 14.786 134.8 17.544h0c4.794 1.364 5.028 4.829 5.028 5.492h0c0 .072-.003.111-.003.111h0l.005 49.227s.002.039.002.11h0c0 .663-.235 4.125-5.032 5.487h0c-9.714 2.762-60.795 17.54-134.878 17.54h0c-74.088 0-125.086-14.778-134.802-17.54" transform="translate(-528.815 -393.967)"/></clipPath><clipPath id="K"><path d="M176.968 390.108c-4.796-1.362-5.028-4.824-5.028-5.487h0l.003-.11h0v-49.227l-.003-.111h0c0-.663.232-4.128 5.022-5.492h0c9.718-2.758 60.802-17.544 134.886-17.544h0c74.086 0 125.083 14.786 134.8 17.544h0c4.794 1.364 5.028 4.829 5.028 5.492h0c0 .072-.003.111-.003.111h0l.005 49.227s.002.039.002.11h0c0 .663-.235 4.125-5.032 5.487h0c-9.714 2.762-60.795 17.54-134.878 17.54h0c-74.088 0-125.086-14.778-134.802-17.54" transform="translate(-527.155 -393.911)"/></clipPath><clipPath id="L"><path d="M176.968 390.108c-4.796-1.362-5.028-4.824-5.028-5.487h0l.003-.11h0v-49.227l-.003-.111h0c0-.663.232-4.128 5.022-5.492h0c9.718-2.758 60.802-17.544 134.886-17.544h0c74.086 0 125.083 14.786 134.8 17.544h0c4.794 1.364 5.028 4.829 5.028 5.492h0c0 .072-.003.111-.003.111h0l.005 49.227s.002.039.002.11h0c0 .663-.235 4.125-5.032 5.487h0c-9.714 2.762-60.795 17.54-134.878 17.54h0c-74.088 0-125.086-14.778-134.802-17.54" transform="translate(-525.442 -393.855)"/></clipPath><clipPath id="M"><path d="M176.968 390.108c-4.796-1.362-5.028-4.824-5.028-5.487h0l.003-.11h0v-49.227l-.003-.111h0c0-.663.232-4.128 5.022-5.492h0c9.718-2.758 60.802-17.544 134.886-17.544h0c74.086 0 125.083 14.786 134.8 17.544h0c4.794 1.364 5.028 4.829 5.028 5.492h0c0 .072-.003.111-.003.111h0l.005 49.227s.002.039.002.11h0c0 .663-.235 4.125-5.032 5.487h0c-9.714 2.762-60.795 17.54-134.878 17.54h0c-74.088 0-125.086-14.778-134.802-17.54" transform="translate(-523.679 -393.857)"/></clipPath><clipPath id="N"><path d="M176.968 390.108c-4.796-1.362-5.028-4.824-5.028-5.487h0l.003-.11h0v-49.227l-.003-.111h0c0-.663.232-4.128 5.022-5.492h0c9.718-2.758 60.802-17.544 134.886-17.544h0c74.086 0 125.083 14.786 134.8 17.544h0c4.794 1.364 5.028 4.829 5.028 5.492h0c0 .072-.003.111-.003.111h0l.005 49.227s.002.039.002.11h0c0 .663-.235 4.125-5.032 5.487h0c-9.714 2.762-60.795 17.54-134.878 17.54h0c-74.088 0-125.086-14.778-134.802-17.54" transform="translate(-522.02 -393.8)"/></clipPath><clipPath id="O"><path d="M176.968 390.108c-4.796-1.362-5.028-4.824-5.028-5.487h0l.003-.11h0v-49.227l-.003-.111h0c0-.663.232-4.128 5.022-5.492h0c9.718-2.758 60.802-17.544 134.886-17.544h0c74.086 0 125.083 14.786 134.8 17.544h0c4.794 1.364 5.028 4.829 5.028 5.492h0c0 .072-.003.111-.003.111h0l.005 49.227s.002.039.002.11h0c0 .663-.235 4.125-5.032 5.487h0c-9.714 2.762-60.795 17.54-134.878 17.54h0c-74.088 0-125.086-14.778-134.802-17.54" transform="translate(-520.256 -393.8)"/></clipPath><clipPath id="P"><path d="M176.968 390.108c-4.796-1.362-5.028-4.824-5.028-5.487h0l.003-.11h0v-49.227l-.003-.111h0c0-.663.232-4.128 5.022-5.492h0c9.718-2.758 60.802-17.544 134.886-17.544h0c74.086 0 125.083 14.786 134.8 17.544h0c4.794 1.364 5.028 4.829 5.028 5.492h0c0 .072-.003.111-.003.111h0l.005 49.227s.002.039.002.11h0c0 .663-.235 4.125-5.032 5.487h0c-9.714 2.762-60.795 17.54-134.878 17.54h0c-74.088 0-125.086-14.778-134.802-17.54" transform="translate(-518.544 -393.746)"/></clipPath><clipPath id="Q"><path d="M176.968 390.108c-4.796-1.362-5.028-4.824-5.028-5.487h0l.003-.11h0v-49.227l-.003-.111h0c0-.663.232-4.128 5.022-5.492h0c9.718-2.758 60.802-17.544 134.886-17.544h0c74.086 0 125.083 14.786 134.8 17.544h0c4.794 1.364 5.028 4.829 5.028 5.492h0c0 .072-.003.111-.003.111h0l.005 49.227s.002.039.002.11h0c0 .663-.235 4.125-5.032 5.487h0c-9.714 2.762-60.795 17.54-134.878 17.54h0c-74.088 0-125.086-14.778-134.802-17.54" transform="translate(-516.837 -393.689)"/></clipPath><clipPath id="R"><path d="M176.968 390.108c-4.796-1.362-5.028-4.824-5.028-5.487h0l.003-.11h0v-49.227l-.003-.111h0c0-.663.232-4.128 5.022-5.492h0c9.718-2.758 60.802-17.544 134.886-17.544h0c74.086 0 125.083 14.786 134.8 17.544h0c4.794 1.364 5.028 4.829 5.028 5.492h0c0 .072-.003.111-.003.111h0l.005 49.227s.002.039.002.11h0c0 .663-.235 4.125-5.032 5.487h0c-9.714 2.762-60.795 17.54-134.878 17.54h0c-74.088 0-125.086-14.778-134.802-17.54" transform="translate(-515.125 -393.694)"/></clipPath><clipPath id="S"><path d="M176.968 390.108c-4.796-1.362-5.028-4.824-5.028-5.487h0l.003-.11h0v-49.227l-.003-.111h0c0-.663.232-4.128 5.022-5.492h0c9.718-2.758 60.802-17.544 134.886-17.544h0c74.086 0 125.083 14.786 134.8 17.544h0c4.794 1.364 5.028 4.829 5.028 5.492h0c0 .072-.003.111-.003.111h0l.005 49.227s.002.039.002.11h0c0 .663-.235 4.125-5.032 5.487h0c-9.714 2.762-60.795 17.54-134.878 17.54h0c-74.088 0-125.086-14.778-134.802-17.54" transform="translate(-513.36 -393.637)"/></clipPath><clipPath id="T"><path d="M176.968 390.108c-4.796-1.362-5.028-4.824-5.028-5.487h0l.003-.11h0v-49.227l-.003-.111h0c0-.663.232-4.128 5.022-5.492h0c9.718-2.758 60.802-17.544 134.886-17.544h0c74.086 0 125.083 14.786 134.8 17.544h0c4.794 1.364 5.028 4.829 5.028 5.492h0c0 .072-.003.111-.003.111h0l.005 49.227s.002.039.002.11h0c0 .663-.235 4.125-5.032 5.487h0c-9.714 2.762-60.795 17.54-134.878 17.54h0c-74.088 0-125.086-14.778-134.802-17.54" transform="translate(-511.702 -393.637)"/></clipPath><clipPath id="U"><path d="M176.968 390.108c-4.796-1.362-5.028-4.824-5.028-5.487h0l.003-.11h0v-49.227l-.003-.111h0c0-.663.232-4.128 5.022-5.492h0c9.718-2.758 60.802-17.544 134.886-17.544h0c74.086 0 125.083 14.786 134.8 17.544h0c4.794 1.364 5.028 4.829 5.028 5.492h0c0 .072-.003.111-.003.111h0l.005 49.227s.002.039.002.11h0c0 .663-.235 4.125-5.032 5.487h0c-9.714 2.762-60.795 17.54-134.878 17.54h0c-74.088 0-125.086-14.778-134.802-17.54" transform="translate(-509.942 -393.581)"/></clipPath><clipPath id="V"><path d="M176.968 390.108c-4.796-1.362-5.028-4.824-5.028-5.487h0l.003-.11h0v-49.227l-.003-.111h0c0-.663.232-4.128 5.022-5.492h0c9.718-2.758 60.802-17.544 134.886-17.544h0c74.086 0 125.083 14.786 134.8 17.544h0c4.794 1.364 5.028 4.829 5.028 5.492h0c0 .072-.003.111-.003.111h0l.005 49.227s.002.039.002.11h0c0 .663-.235 4.125-5.032 5.487h0c-9.714 2.762-60.795 17.54-134.878 17.54h0c-74.088 0-125.086-14.778-134.802-17.54" transform="translate(-508.226 -393.526)"/></clipPath><clipPath id="W"><path d="M176.968 390.108c-4.796-1.362-5.028-4.824-5.028-5.487h0l.003-.11h0v-49.227l-.003-.111h0c0-.663.232-4.128 5.022-5.492h0c9.718-2.758 60.802-17.544 134.886-17.544h0c74.086 0 125.083 14.786 134.8 17.544h0c4.794 1.364 5.028 4.829 5.028 5.492h0c0 .072-.003.111-.003.111h0l.005 49.227s.002.039.002.11h0c0 .663-.235 4.125-5.032 5.487h0c-9.714 2.762-60.795 17.54-134.878 17.54h0c-74.088 0-125.086-14.778-134.802-17.54" transform="translate(-506.518 -393.528)"/></clipPath><clipPath id="X"><path d="M176.968 390.108c-4.796-1.362-5.028-4.824-5.028-5.487h0l.003-.11h0v-49.227l-.003-.111h0c0-.663.232-4.128 5.022-5.492h0c9.718-2.758 60.802-17.544 134.886-17.544h0c74.086 0 125.083 14.786 134.8 17.544h0c4.794 1.364 5.028 4.829 5.028 5.492h0c0 .072-.003.111-.003.111h0l.005 49.227s.002.039.002.11h0c0 .663-.235 4.125-5.032 5.487h0c-9.714 2.762-60.795 17.54-134.878 17.54h0c-74.088 0-125.086-14.778-134.802-17.54" transform="translate(-504.808 -393.474)"/></clipPath><clipPath id="Y"><path d="M176.968 390.108c-4.796-1.362-5.028-4.824-5.028-5.487h0l.003-.11h0v-49.227l-.003-.111h0c0-.663.232-4.128 5.022-5.492h0c9.718-2.758 60.802-17.544 134.886-17.544h0c74.086 0 125.083 14.786 134.8 17.544h0c4.794 1.364 5.028 4.829 5.028 5.492h0c0 .072-.003.111-.003.111h0l.005 49.227s.002.039.002.11h0c0 .663-.235 4.125-5.032 5.487h0c-9.714 2.762-60.795 17.54-134.878 17.54h0c-74.088 0-125.086-14.778-134.802-17.54" transform="translate(-503.097 -393.474)"/></clipPath><clipPath id="Z"><path d="M176.968 390.108c-4.796-1.362-5.028-4.824-5.028-5.487h0l.003-.11h0v-49.227l-.003-.111h0c0-.663.232-4.128 5.022-5.492h0c9.718-2.758 60.802-17.544 134.886-17.544h0c74.086 0 125.083 14.786 134.8 17.544h0c4.794 1.364 5.028 4.829 5.028 5.492h0c0 .072-.003.111-.003.111h0l.005 49.227s.002.039.002.11h0c0 .663-.235 4.125-5.032 5.487h0c-9.714 2.762-60.795 17.54-134.878 17.54h0c-74.088 0-125.086-14.778-134.802-17.54" transform="translate(-501.384 -393.466)"/></clipPath><clipPath id="a"><path d="M176.968 390.108c-4.796-1.362-5.028-4.824-5.028-5.487h0l.003-.11h0v-49.227l-.003-.111h0c0-.663.232-4.128 5.022-5.492h0c9.718-2.758 60.802-17.544 134.886-17.544h0c74.086 0 125.083 14.786 134.8 17.544h0c4.794 1.364 5.028 4.829 5.028 5.492h0c0 .072-.003.111-.003.111h0l.005 49.227s.002.039.002.11h0c0 .663-.235 4.125-5.032 5.487h0c-9.714 2.762-60.795 17.54-134.878 17.54h0c-74.088 0-125.086-14.778-134.802-17.54" transform="translate(-499.667 -393.413)"/></clipPath><clipPath id="b"><path d="M176.968 390.108c-4.796-1.362-5.028-4.824-5.028-5.487h0l.003-.11h0v-49.227l-.003-.111h0c0-.663.232-4.128 5.022-5.492h0c9.718-2.758 60.802-17.544 134.886-17.544h0c74.086 0 125.083 14.786 134.8 17.544h0c4.794 1.364 5.028 4.829 5.028 5.492h0c0 .072-.003.111-.003.111h0l.005 49.227s.002.039.002.11h0c0 .663-.235 4.125-5.032 5.487h0c-9.714 2.762-60.795 17.54-134.878 17.54h0c-74.088 0-125.086-14.778-134.802-17.54" transform="translate(-497.963 -393.413)"/></clipPath><clipPath id="c"><path d="M176.968 390.108c-4.796-1.362-5.028-4.824-5.028-5.487h0l.003-.11h0v-49.227l-.003-.111h0c0-.663.232-4.128 5.022-5.492h0c9.718-2.758 60.802-17.544 134.886-17.544h0c74.086 0 125.083 14.786 134.8 17.544h0c4.794 1.364 5.028 4.829 5.028 5.492h0c0 .072-.003.111-.003.111h0l.005 49.227s.002.039.002.11h0c0 .663-.235 4.125-5.032 5.487h0c-9.714 2.762-60.795 17.54-134.878 17.54h0c-74.088 0-125.086-14.778-134.802-17.54" transform="translate(-496.249 -393.358)"/></clipPath><clipPath id="d"><path d="M176.968 390.108c-4.796-1.362-5.028-4.824-5.028-5.487h0l.003-.11h0v-49.227l-.003-.111h0c0-.663.232-4.128 5.022-5.492h0c9.718-2.758 60.802-17.544 134.886-17.544h0c74.086 0 125.083 14.786 134.8 17.544h0c4.794 1.364 5.028 4.829 5.028 5.492h0c0 .072-.003.111-.003.111h0l.005 49.227s.002.039.002.11h0c0 .663-.235 4.125-5.032 5.487h0c-9.714 2.762-60.795 17.54-134.878 17.54h0c-74.088 0-125.086-14.778-134.802-17.54" transform="translate(-494.483 -393.358)"/></clipPath><clipPath id="e"><path d="M176.968 390.108c-4.796-1.362-5.028-4.824-5.028-5.487h0l.003-.11h0v-49.227l-.003-.111h0c0-.663.232-4.128 5.022-5.492h0c9.718-2.758 60.802-17.544 134.886-17.544h0c74.086 0 125.083 14.786 134.8 17.544h0c4.794 1.364 5.028 4.829 5.028 5.492h0c0 .072-.003.111-.003.111h0l.005 49.227s.002.039.002.11h0c0 .663-.235 4.125-5.032 5.487h0c-9.714 2.762-60.795 17.54-134.878 17.54h0c-74.088 0-125.086-14.778-134.802-17.54" transform="translate(-492.828 -393.304)"/></clipPath><clipPath id="f"><path d="M176.968 390.108c-4.796-1.362-5.028-4.824-5.028-5.487h0l.003-.11h0v-49.227l-.003-.111h0c0-.663.232-4.128 5.022-5.492h0c9.718-2.758 60.802-17.544 134.886-17.544h0c74.086 0 125.083 14.786 134.8 17.544h0c4.794 1.364 5.028 4.829 5.028 5.492h0c0 .072-.003.111-.003.111h0l.005 49.227s.002.039.002.11h0c0 .663-.235 4.125-5.032 5.487h0c-9.714 2.762-60.795 17.54-134.878 17.54h0c-74.088 0-125.086-14.778-134.802-17.54" transform="translate(-491.066 -393.249)"/></clipPath><clipPath id="g"><path d="M176.968 390.108c-4.796-1.362-5.028-4.824-5.028-5.487h0l.003-.11h0v-49.227l-.003-.111h0c0-.663.232-4.128 5.022-5.492h0c9.718-2.758 60.802-17.544 134.886-17.544h0c74.086 0 125.083 14.786 134.8 17.544h0c4.794 1.364 5.028 4.829 5.028 5.492h0c0 .072-.003.111-.003.111h0l.005 49.227s.002.039.002.11h0c0 .663-.235 4.125-5.032 5.487h0c-9.714 2.762-60.795 17.54-134.878 17.54h0c-74.088 0-125.086-14.778-134.802-17.54" transform="translate(-489.348 -393.249)"/></clipPath><clipPath id="h"><path d="M176.968 390.108c-4.796-1.362-5.028-4.824-5.028-5.487h0l.003-.11h0v-49.227l-.003-.111h0c0-.663.232-4.128 5.022-5.492h0c9.718-2.758 60.802-17.544 134.886-17.544h0c74.086 0 125.083 14.786 134.8 17.544h0c4.794 1.364 5.028 4.829 5.028 5.492h0c0 .072-.003.111-.003.111h0l.005 49.227s.002.039.002.11h0c0 .663-.235 4.125-5.032 5.487h0c-9.714 2.762-60.795 17.54-134.878 17.54h0c-74.088 0-125.086-14.778-134.802-17.54" transform="translate(-487.644 -393.191)"/></clipPath><clipPath id="i"><path d="M176.968 390.108c-4.796-1.362-5.028-4.824-5.028-5.487h0l.003-.11h0v-49.227l-.003-.111h0c0-.663.232-4.128 5.022-5.492h0c9.718-2.758 60.802-17.544 134.886-17.544h0c74.086 0 125.083 14.786 134.8 17.544h0c4.794 1.364 5.028 4.829 5.028 5.492h0c0 .072-.003.111-.003.111h0l.005 49.227s.002.039.002.11h0c0 .663-.235 4.125-5.032 5.487h0c-9.714 2.762-60.795 17.54-134.878 17.54h0c-74.088 0-125.086-14.778-134.802-17.54" transform="translate(-485.93 -393.191)"/></clipPath><clipPath id="j"><path d="M176.968 390.108c-4.796-1.362-5.028-4.824-5.028-5.487h0l.003-.11h0v-49.227l-.003-.111h0c0-.663.232-4.128 5.022-5.492h0c9.718-2.758 60.802-17.544 134.886-17.544h0c74.086 0 125.083 14.786 134.8 17.544h0c4.794 1.364 5.028 4.829 5.028 5.492h0c0 .072-.003.111-.003.111h0l.005 49.227s.002.039.002.11h0c0 .663-.235 4.125-5.032 5.487h0c-9.714 2.762-60.795 17.54-134.878 17.54h0c-74.088 0-125.086-14.778-134.802-17.54" transform="translate(-484.167 -393.141)"/></clipPath><clipPath id="k"><path d="M176.968 390.108c-4.796-1.362-5.028-4.824-5.028-5.487h0l.003-.11h0v-49.227l-.003-.111h0c0-.663.232-4.128 5.022-5.492h0c9.718-2.758 60.802-17.544 134.886-17.544h0c74.086 0 125.083 14.786 134.8 17.544h0c4.794 1.364 5.028 4.829 5.028 5.492h0c0 .072-.003.111-.003.111h0l.005 49.227s.002.039.002.11h0c0 .663-.235 4.125-5.032 5.487h0c-9.714 2.762-60.795 17.54-134.878 17.54h0c-74.088 0-125.086-14.778-134.802-17.54" transform="translate(-482.508 -393.086)"/></clipPath><clipPath id="l"><path d="M176.968 390.108c-4.796-1.362-5.028-4.824-5.028-5.487h0l.003-.11h0v-49.227l-.003-.111h0c0-.663.232-4.128 5.022-5.492h0c9.718-2.758 60.802-17.544 134.886-17.544h0c74.086 0 125.083 14.786 134.8 17.544h0c4.794 1.364 5.028 4.829 5.028 5.492h0c0 .072-.003.111-.003.111h0l.005 49.227s.002.039.002.11h0c0 .663-.235 4.125-5.032 5.487h0c-9.714 2.762-60.795 17.54-134.878 17.54h0c-74.088 0-125.086-14.778-134.802-17.54" transform="translate(-480.747 -393.086)"/></clipPath><clipPath id="m"><path d="M176.968 390.108c-4.796-1.362-5.028-4.824-5.028-5.487h0l.003-.11h0v-49.227l-.003-.111h0c0-.663.232-4.128 5.022-5.492h0c9.718-2.758 60.802-17.544 134.886-17.544h0c74.086 0 125.083 14.786 134.8 17.544h0c4.794 1.364 5.028 4.829 5.028 5.492h0c0 .072-.003.111-.003.111h0l.005 49.227s.002.039.002.11h0c0 .663-.235 4.125-5.032 5.487h0c-9.714 2.762-60.795 17.54-134.878 17.54h0c-74.088 0-125.086-14.778-134.802-17.54" transform="translate(-479.032 -393.028)"/></clipPath><clipPath id="n"><path d="M176.968 390.108c-4.796-1.362-5.028-4.824-5.028-5.487h0l.003-.11h0v-49.227l-.003-.111h0c0-.663.232-4.128 5.022-5.492h0c9.718-2.758 60.802-17.544 134.886-17.544h0c74.086 0 125.083 14.786 134.8 17.544h0c4.794 1.364 5.028 4.829 5.028 5.492h0c0 .072-.003.111-.003.111h0l.005 49.227s.002.039.002.11h0c0 .663-.235 4.125-5.032 5.487h0c-9.714 2.762-60.795 17.54-134.878 17.54h0c-74.088 0-125.086-14.778-134.802-17.54" transform="translate(-477.321 -393.031)"/></clipPath><clipPath id="o"><path d="M176.968 390.108c-4.796-1.362-5.028-4.824-5.028-5.487h0l.003-.11h0v-49.227l-.003-.111h0c0-.663.232-4.128 5.022-5.492h0c9.718-2.758 60.802-17.544 134.886-17.544h0c74.086 0 125.083 14.786 134.8 17.544h0c4.794 1.364 5.028 4.829 5.028 5.492h0c0 .072-.003.111-.003.111h0l.005 49.227s.002.039.002.11h0c0 .663-.235 4.125-5.032 5.487h0c-9.714 2.762-60.795 17.54-134.878 17.54h0c-74.088 0-125.086-14.778-134.802-17.54" transform="translate(-475.609 -392.976)"/></clipPath><clipPath id="p"><path d="M176.968 390.108c-4.796-1.362-5.028-4.824-5.028-5.487h0l.003-.11h0v-49.227l-.003-.111h0c0-.663.232-4.128 5.022-5.492h0c9.718-2.758 60.802-17.544 134.886-17.544h0c74.086 0 125.083 14.786 134.8 17.544h0c4.794 1.364 5.028 4.829 5.028 5.492h0c0 .072-.003.111-.003.111h0l.005 49.227s.002.039.002.11h0c0 .663-.235 4.125-5.032 5.487h0c-9.714 2.762-60.795 17.54-134.878 17.54h0c-74.088 0-125.086-14.778-134.802-17.54" transform="translate(-473.95 -392.919)"/></clipPath><clipPath id="q"><path d="M176.968 390.108c-4.796-1.362-5.028-4.824-5.028-5.487h0l.003-.11h0v-49.227l-.003-.111h0c0-.663.232-4.128 5.022-5.492h0c9.718-2.758 60.802-17.544 134.886-17.544h0c74.086 0 125.083 14.786 134.8 17.544h0c4.794 1.364 5.028 4.829 5.028 5.492h0c0 .072-.003.111-.003.111h0l.005 49.227s.002.039.002.11h0c0 .663-.235 4.125-5.032 5.487h0c-9.714 2.762-60.795 17.54-134.878 17.54h0c-74.088 0-125.086-14.778-134.802-17.54" transform="translate(-466.374 -392.856)"/></clipPath><clipPath id="r"><path d="M176.968 390.108c-4.796-1.362-5.028-4.824-5.028-5.487h0l.003-.11h0v-49.227l-.003-.111h0c0-.663.232-4.128 5.022-5.492h0c9.718-2.758 60.802-17.544 134.886-17.544h0c74.086 0 125.083 14.786 134.8 17.544h0c4.794 1.364 5.028 4.829 5.028 5.492h0c0 .072-.003.111-.003.111h0l.005 49.227s.002.039.002.11h0c0 .663-.235 4.125-5.032 5.487h0c-9.714 2.762-60.795 17.54-134.878 17.54h0c-74.088 0-125.086-14.778-134.802-17.54" transform="translate(-460.569 -392.695)"/></clipPath><clipPath id="s"><path d="M176.968 390.108c-4.796-1.362-5.028-4.824-5.028-5.487h0l.003-.11h0v-49.227l-.003-.111h0c0-.663.232-4.128 5.022-5.492h0c9.718-2.758 60.802-17.544 134.886-17.544h0c74.086 0 125.083 14.786 134.8 17.544h0c4.794 1.364 5.028 4.829 5.028 5.492h0c0 .072-.003.111-.003.111h0l.005 49.227s.002.039.002.11h0c0 .663-.235 4.125-5.032 5.487h0c-9.714 2.762-60.795 17.54-134.878 17.54h0c-74.088 0-125.086-14.778-134.802-17.54" transform="translate(-454.764 -392.638)"/></clipPath><clipPath id="t"><path d="M176.968 390.108c-4.796-1.362-5.028-4.824-5.028-5.487h0l.003-.11h0v-49.227l-.003-.111h0c0-.663.232-4.128 5.022-5.492h0c9.718-2.758 60.802-17.544 134.886-17.544h0c74.086 0 125.083 14.786 134.8 17.544h0c4.794 1.364 5.028 4.829 5.028 5.492h0c0 .072-.003.111-.003.111h0l.005 49.227s.002.039.002.11h0c0 .663-.235 4.125-5.032 5.487h0c-9.714 2.762-60.795 17.54-134.878 17.54h0c-74.088 0-125.086-14.778-134.802-17.54" transform="translate(-448.953 -392.528)"/></clipPath><clipPath id="u"><path d="M176.968 390.108c-4.796-1.362-5.028-4.824-5.028-5.487h0l.003-.11h0v-49.227l-.003-.111h0c0-.663.232-4.128 5.022-5.492h0c9.718-2.758 60.802-17.544 134.886-17.544h0c74.086 0 125.083 14.786 134.8 17.544h0c4.794 1.364 5.028 4.829 5.028 5.492h0c0 .072-.003.111-.003.111h0l.005 49.227s.002.039.002.11h0c0 .663-.235 4.125-5.032 5.487h0c-9.714 2.762-60.795 17.54-134.878 17.54h0c-74.088 0-125.086-14.778-134.802-17.54" transform="translate(-443.197 -392.471)"/></clipPath><clipPath id="v"><path d="M176.968 390.108c-4.796-1.362-5.028-4.824-5.028-5.487h0l.003-.11h0v-49.227l-.003-.111h0c0-.663.232-4.128 5.022-5.492h0c9.718-2.758 60.802-17.544 134.886-17.544h0c74.086 0 125.083 14.786 134.8 17.544h0c4.794 1.364 5.028 4.829 5.028 5.492h0c0 .072-.003.111-.003.111h0l.005 49.227s.002.039.002.11h0c0 .663-.235 4.125-5.032 5.487h0c-9.714 2.762-60.795 17.54-134.878 17.54h0c-74.088 0-125.086-14.778-134.802-17.54" transform="translate(-437.392 -392.311)"/></clipPath><clipPath id="w"><path d="M176.968 390.108c-4.796-1.362-5.028-4.824-5.028-5.487h0l.003-.11h0v-49.227l-.003-.111h0c0-.663.232-4.128 5.022-5.492h0c9.718-2.758 60.802-17.544 134.886-17.544h0c74.086 0 125.083 14.786 134.8 17.544h0c4.794 1.364 5.028 4.829 5.028 5.492h0c0 .072-.003.111-.003.111h0l.005 49.227s.002.039.002.11h0c0 .663-.235 4.125-5.032 5.487h0c-9.714 2.762-60.795 17.54-134.878 17.54h0c-74.088 0-125.086-14.778-134.802-17.54" transform="translate(-431.586 -392.205)"/></clipPath><clipPath id="x"><path d="M176.968 390.108c-4.796-1.362-5.028-4.824-5.028-5.487h0l.003-.11h0v-49.227l-.003-.111h0c0-.663.232-4.128 5.022-5.492h0c9.718-2.758 60.802-17.544 134.886-17.544h0c74.086 0 125.083 14.786 134.8 17.544h0c4.794 1.364 5.028 4.829 5.028 5.492h0c0 .072-.003.111-.003.111h0l.005 49.227s.002.039.002.11h0c0 .663-.235 4.125-5.032 5.487h0c-9.714 2.762-60.795 17.54-134.878 17.54h0c-74.088 0-125.086-14.778-134.802-17.54" transform="translate(-425.78 -392.146)"/></clipPath><clipPath id="y"><path d="M176.968 390.108c-4.796-1.362-5.028-4.824-5.028-5.487h0l.003-.11h0v-49.227l-.003-.111h0c0-.663.232-4.128 5.022-5.492h0c9.718-2.758 60.802-17.544 134.886-17.544h0c74.086 0 125.083 14.786 134.8 17.544h0c4.794 1.364 5.028 4.829 5.028 5.492h0c0 .072-.003.111-.003.111h0l.005 49.227s.002.039.002.11h0c0 .663-.235 4.125-5.032 5.487h0c-9.714 2.762-60.795 17.54-134.878 17.54h0c-74.088 0-125.086-14.778-134.802-17.54" transform="translate(-420.022 -392.042)"/></clipPath><clipPath id="z"><path d="M176.968 390.108c-4.796-1.362-5.028-4.824-5.028-5.487h0l.003-.11h0v-49.227l-.003-.111h0c0-.663.232-4.128 5.022-5.492h0c9.718-2.758 60.802-17.544 134.886-17.544h0c74.086 0 125.083 14.786 134.8 17.544h0c4.794 1.364 5.028 4.829 5.028 5.492h0c0 .072-.003.111-.003.111h0l.005 49.227s.002.039.002.11h0c0 .663-.235 4.125-5.032 5.487h0c-9.714 2.762-60.795 17.54-134.878 17.54h0c-74.088 0-125.086-14.778-134.802-17.54" transform="translate(-414.269 -391.927)"/></clipPath><clipPath id="AA"><path d="M176.968 390.108c-4.796-1.362-5.028-4.824-5.028-5.487h0l.003-.11h0v-49.227l-.003-.111h0c0-.663.232-4.128 5.022-5.492h0c9.718-2.758 60.802-17.544 134.886-17.544h0c74.086 0 125.083 14.786 134.8 17.544h0c4.794 1.364 5.028 4.829 5.028 5.492h0c0 .072-.003.111-.003.111h0l.005 49.227s.002.039.002.11h0c0 .663-.235 4.125-5.032 5.487h0c-9.714 2.762-60.795 17.54-134.878 17.54h0c-74.088 0-125.086-14.778-134.802-17.54" transform="translate(-408.47 -391.82)"/></clipPath><clipPath id="AB"><path d="M176.968 390.108c-4.796-1.362-5.028-4.824-5.028-5.487h0l.003-.11h0v-49.227l-.003-.111h0c0-.663.232-4.128 5.022-5.492h0c9.718-2.758 60.802-17.544 134.886-17.544h0c74.086 0 125.083 14.786 134.8 17.544h0c4.794 1.364 5.028 4.829 5.028 5.492h0c0 .072-.003.111-.003.111h0l.005 49.227s.002.039.002.11h0c0 .663-.235 4.125-5.032 5.487h0c-9.714 2.762-60.795 17.54-134.878 17.54h0c-74.088 0-125.086-14.778-134.802-17.54" transform="translate(-402.662 -391.72)"/></clipPath><clipPath id="AC"><path d="M176.968 390.108c-4.796-1.362-5.028-4.824-5.028-5.487h0l.003-.11h0v-49.227l-.003-.111h0c0-.663.232-4.128 5.022-5.492h0c9.718-2.758 60.802-17.544 134.886-17.544h0c74.086 0 125.083 14.786 134.8 17.544h0c4.794 1.364 5.028 4.829 5.028 5.492h0c0 .072-.003.111-.003.111h0l.005 49.227s.002.039.002.11h0c0 .663-.235 4.125-5.032 5.487h0c-9.714 2.762-60.795 17.54-134.878 17.54h0c-74.088 0-125.086-14.778-134.802-17.54" transform="translate(-396.901 -391.66)"/></clipPath><clipPath id="AD"><path d="M176.968 390.108c-4.796-1.362-5.028-4.824-5.028-5.487h0l.003-.11h0v-49.227l-.003-.111h0c0-.663.232-4.128 5.022-5.492h0c9.718-2.758 60.802-17.544 134.886-17.544h0c74.086 0 125.083 14.786 134.8 17.544h0c4.794 1.364 5.028 4.829 5.028 5.492h0c0 .072-.003.111-.003.111h0l.005 49.227s.002.039.002.11h0c0 .663-.235 4.125-5.032 5.487h0c-9.714 2.762-60.795 17.54-134.878 17.54h0c-74.088 0-125.086-14.778-134.802-17.54" transform="translate(-391.098 -391.497)"/></clipPath><clipPath id="AE"><path d="M176.968 390.108c-4.796-1.362-5.028-4.824-5.028-5.487h0l.003-.11h0v-49.227l-.003-.111h0c0-.663.232-4.128 5.022-5.492h0c9.718-2.758 60.802-17.544 134.886-17.544h0c74.086 0 125.083 14.786 134.8 17.544h0c4.794 1.364 5.028 4.829 5.028 5.492h0c0 .072-.003.111-.003.111h0l.005 49.227s.002.039.002.11h0c0 .663-.235 4.125-5.032 5.487h0c-9.714 2.762-60.795 17.54-134.878 17.54h0c-74.088 0-125.086-14.778-134.802-17.54" transform="translate(-385.29 -391.44)"/></clipPath><clipPath id="AF"><path d="M176.968 390.108c-4.796-1.362-5.028-4.824-5.028-5.487h0l.003-.11h0v-49.227l-.003-.111h0c0-.663.232-4.128 5.022-5.492h0c9.718-2.758 60.802-17.544 134.886-17.544h0c74.086 0 125.083 14.786 134.8 17.544h0c4.794 1.364 5.028 4.829 5.028 5.492h0c0 .072-.003.111-.003.111h0l.005 49.227s.002.039.002.11h0c0 .663-.235 4.125-5.032 5.487h0c-9.714 2.762-60.795 17.54-134.878 17.54h0c-74.088 0-125.086-14.778-134.802-17.54" transform="translate(-379.489 -391.331)"/></clipPath><clipPath id="AG"><path d="M176.968 390.108c-4.796-1.362-5.028-4.824-5.028-5.487h0l.003-.11h0v-49.227l-.003-.111h0c0-.663.232-4.128 5.022-5.492h0c9.718-2.758 60.802-17.544 134.886-17.544h0c74.086 0 125.083 14.786 134.8 17.544h0c4.794 1.364 5.028 4.829 5.028 5.492h0c0 .072-.003.111-.003.111h0l.005 49.227s.002.039.002.11h0c0 .663-.235 4.125-5.032 5.487h0c-9.714 2.762-60.795 17.54-134.878 17.54h0c-74.088 0-125.086-14.778-134.802-17.54" transform="translate(-373.727 -391.225)"/></clipPath><clipPath id="AH"><path d="M176.968 390.108c-4.796-1.362-5.028-4.824-5.028-5.487h0l.003-.11h0v-49.227l-.003-.111h0c0-.663.232-4.128 5.022-5.492h0c9.718-2.758 60.802-17.544 134.886-17.544h0c74.086 0 125.083 14.786 134.8 17.544h0c4.794 1.364 5.028 4.829 5.028 5.492h0c0 .072-.003.111-.003.111h0l.005 49.227s.002.039.002.11h0c0 .663-.235 4.125-5.032 5.487h0c-9.714 2.762-60.795 17.54-134.878 17.54h0c-74.088 0-125.086-14.778-134.802-17.54" transform="translate(-367.917 -391.114)"/></clipPath><clipPath id="AI"><path d="M176.968 390.108c-4.796-1.362-5.028-4.824-5.028-5.487h0l.003-.11h0v-49.227l-.003-.111h0c0-.663.232-4.128 5.022-5.492h0c9.718-2.758 60.802-17.544 134.886-17.544h0c74.086 0 125.083 14.786 134.8 17.544h0c4.794 1.364 5.028 4.829 5.028 5.492h0c0 .072-.003.111-.003.111h0l.005 49.227s.002.039.002.11h0c0 .663-.235 4.125-5.032 5.487h0c-9.714 2.762-60.795 17.54-134.878 17.54h0c-74.088 0-125.086-14.778-134.802-17.54" transform="translate(-362.115 -391.006)"/></clipPath><clipPath id="AJ"><path d="M176.968 390.108c-4.796-1.362-5.028-4.824-5.028-5.487h0l.003-.11h0v-49.227l-.003-.111h0c0-.663.232-4.128 5.022-5.492h0c9.718-2.758 60.802-17.544 134.886-17.544h0c74.086 0 125.083 14.786 134.8 17.544h0c4.794 1.364 5.028 4.829 5.028 5.492h0c0 .072-.003.111-.003.111h0l.005 49.227s.002.039.002.11h0c0 .663-.235 4.125-5.032 5.487h0c-9.714 2.762-60.795 17.54-134.878 17.54h0c-74.088 0-125.086-14.778-134.802-17.54" transform="translate(-356.309 -390.946)"/></clipPath><clipPath id="AK"><path d="M176.968 390.108c-4.796-1.362-5.028-4.824-5.028-5.487h0l.003-.11h0v-49.227l-.003-.111h0c0-.663.232-4.128 5.022-5.492h0c9.718-2.758 60.802-17.544 134.886-17.544h0c74.086 0 125.083 14.786 134.8 17.544h0c4.794 1.364 5.028 4.829 5.028 5.492h0c0 .072-.003.111-.003.111h0l.005 49.227s.002.039.002.11h0c0 .663-.235 4.125-5.032 5.487h0c-9.714 2.762-60.795 17.54-134.878 17.54h0c-74.088 0-125.086-14.778-134.802-17.54" transform="translate(-350.549 -390.844)"/></clipPath><clipPath id="AL"><path d="M176.968 390.108c-4.796-1.362-5.028-4.824-5.028-5.487h0l.003-.11h0v-49.227l-.003-.111h0c0-.663.232-4.128 5.022-5.492h0c9.718-2.758 60.802-17.544 134.886-17.544h0c74.086 0 125.083 14.786 134.8 17.544h0c4.794 1.364 5.028 4.829 5.028 5.492h0c0 .072-.003.111-.003.111h0l.005 49.227s.002.039.002.11h0c0 .663-.235 4.125-5.032 5.487h0c-9.714 2.762-60.795 17.54-134.878 17.54h0c-74.088 0-125.086-14.778-134.802-17.54" transform="translate(-344.742 -390.677)"/></clipPath><clipPath id="AM"><path d="M176.968 390.108c-4.796-1.362-5.028-4.824-5.028-5.487h0l.003-.11h0v-49.227l-.003-.111h0c0-.663.232-4.128 5.022-5.492h0c9.718-2.758 60.802-17.544 134.886-17.544h0c74.086 0 125.083 14.786 134.8 17.544h0c4.794 1.364 5.028 4.829 5.028 5.492h0c0 .072-.003.111-.003.111h0l.005 49.227s.002.039.002.11h0c0 .663-.235 4.125-5.032 5.487h0c-9.714 2.762-60.795 17.54-134.878 17.54h0c-74.088 0-125.086-14.778-134.802-17.54" transform="translate(-338.939 -390.623)"/></clipPath><clipPath id="AN"><path d="M176.968 390.108c-4.796-1.362-5.028-4.824-5.028-5.487h0l.003-.11h0v-49.227l-.003-.111h0c0-.663.232-4.128 5.022-5.492h0c9.718-2.758 60.802-17.544 134.886-17.544h0c74.086 0 125.083 14.786 134.8 17.544h0c4.794 1.364 5.028 4.829 5.028 5.492h0c0 .072-.003.111-.003.111h0l.005 49.227s.002.039.002.11h0c0 .663-.235 4.125-5.032 5.487h0c-9.714 2.762-60.795 17.54-134.878 17.54h0c-74.088 0-125.086-14.778-134.802-17.54" transform="translate(-333.133 -390.517)"/></clipPath><clipPath id="AO"><path d="M0 623.62h623.62V0H0z" transform="translate(-416.971 -341.083)"/></clipPath><clipPath id="AP"><path d="M437.638 370.391h11.482v11.48h-11.482z" transform="translate(-441.14 -372.841)"/></clipPath><clipPath id="AQ"><path d="M0 623.62h623.62V0H0z" transform="translate(-178.438 -253.142)"/></clipPath><clipPath id="AR"><path d="M0 623.62h623.62V0H0z" transform="translate(-190.252 -253.33)"/></clipPath><clipPath id="AS"><path d="M0 623.62h623.62V0H0z" transform="translate(-206.907 -242.401)"/></clipPath><clipPath id="AT"><path d="M0 623.62h623.62V0H0z" transform="translate(-226.898 -247.639)"/></clipPath><clipPath id="AU"><path d="M0 623.62h623.62V0H0z" transform="translate(-235.46 -249.605)"/></clipPath><clipPath id="AV"><path d="M0 623.62h623.62V0H0z" transform="translate(-248.516 -255.034)"/></clipPath><clipPath id="AW"><path d="M0 623.62h623.62V0H0z" transform="translate(-266.996 -253.33)"/></clipPath><clipPath id="AX"><path d="M0 623.62h623.62V0H0z" transform="translate(-277.759 -244.035)"/></clipPath><clipPath id="AY"><path d="M0 623.62h623.62V0H0z" transform="translate(-297.355 -253.33)"/></clipPath><clipPath id="AZ"><path d="M0 623.62h623.62V0H0z" transform="translate(-319.508 -243.996)"/></clipPath><clipPath id="Aa"><path d="M0 623.62h623.62V0H0z"/></clipPath><clipPath id="Ab"><path d="M0 623.62h623.62V0H0z" transform="translate(-343.025 -255.034)"/></clipPath><clipPath id="Ac"><path d="M0 623.62h623.62V0H0z" transform="translate(-355.886 -255.034)"/></clipPath><clipPath id="Ad"><path d="M0 623.62h623.62V0H0z" transform="translate(-371.182 -249.605)"/></clipPath><clipPath id="Ae"><path d="M0 623.62h623.62V0H0z" transform="translate(-384.241 -255.034)"/></clipPath><clipPath id="Af"><path d="M0 623.62h623.62V0H0z" transform="translate(-397.815 -255.034)"/></clipPath><clipPath id="Ag"><path d="M0 623.62h623.62V0H0z" transform="translate(-417.033 -253.44)"/></clipPath><clipPath id="Ah"><path d="M0 623.62h623.62V0H0z" transform="translate(-432.091 -253.33)"/></clipPath><clipPath id="Ai"><path d="M0 623.62h623.62V0H0z" transform="translate(-295.614 -259.986)"/></clipPath><clipPath id="Aj"><path d="M0 623.62h623.62V0H0z" transform="translate(-416.977 -239.602)"/></clipPath><clipPath id="Ak"><path d="M0 623.62h623.62V0H0z" transform="translate(-445.307 -254.899)"/></clipPath><path id="Al" d="M0 0s-.29 4.088 5.024 5.597c9.717 2.762 60.715 17.54 134.802 17.54S264.99 8.359 274.705 5.597C280.021 4.088 279.734 0 279.734 0l-.005-49.227s.289-4.091-5.024-5.603c-9.718-2.758-60.715-17.544-134.8-17.544S14.737-57.588 5.02-54.83C-.29-53.318 0-49.227 0-49.227z"/></defs><g transform="matrix(1.333333 0 0 -1.333333 229.25787 318.8124)" fill-rule="evenodd" stroke-miterlimit="3.864"><use href="#Al" clip-path="url(#A)" fill="#c82434" stroke="#c82434" stroke-width="8.11"/><use href="#Al" clip-path="url(#B)" fill="#fff" stroke="#fff" stroke-width="4.866"/></g><g fill="#eb1f30"><path d="M171.937 407.647h279.741v-95.511H171.937z" transform="matrix(1.333333 0 0 -1.333333 0 831.49333)" clip-path="url(#C)"/><path d="M0 0c-2.377-45.305-98.121-83.667-213.857-85.686-115.732-2.028-207.627 33.062-205.252 78.365s98.118 83.666 213.854 85.687S2.375 45.304 0 0" transform="matrix(1.333333 0 0 -1.333333 715.98173 306.0012)" clip-path="url(#D)"/></g><path d="M0 0c-2.367-45.176-97.846-83.435-213.259-85.454-115.408-2.011-207.046 32.973-204.676 78.15s97.845 83.43 213.251 85.447C-89.271 80.162 2.371 45.176 0 0" transform="matrix(1.333333 0 0 -1.333333 715.11067 306.07147)" clip-path="url(#E)" fill="#da2232"/><path d="M0 0c-2.357-45.038-97.551-83.182-212.612-85.193S-419.04-52.322-416.679-7.283s97.553 83.182 212.613 85.192S2.36 45.035 0 0" transform="matrix(1.333333 0 0 -1.333333 714.2812 306.1236)" clip-path="url(#F)" fill="#c82434"/><g fill="#ca2434"><path d="M0 0c-2.343-44.666-96.745-82.494-210.86-84.491-114.117-1.988-204.725 32.6-202.383 77.273 2.342 44.667 96.743 82.491 210.86 84.488S2.342 44.669 0 0" transform="matrix(1.333333 0 0 -1.333333 711.99867 306.134)" clip-path="url(#G)"/><path d="M0 0c-2.322-44.297-95.942-81.809-209.109-83.785s-203.02 32.332-200.7 76.631c2.321 44.291 95.941 81.804 209.111 83.783S2.319 44.3 0 0" transform="matrix(1.333333 0 0 -1.333333 709.72 306.134)" clip-path="url(#H)"/></g><path d="M0 0c-2.302-43.925-95.139-81.124-207.353-83.081S-408.674-51.026-406.371-7.099s95.141 81.125 207.355 83.085S2.303 43.93 0 0" transform="matrix(1.333333 0 0 -1.333333 707.43093 306.20813)" clip-path="url(#I)" fill="#cb2434"/><g fill="#cd2434"><path d="M0 0c-2.283-43.556-94.334-80.438-205.604-82.381s-199.62 31.783-197.339 75.344c2.283 43.552 94.334 80.433 205.605 82.379S2.281 43.554 0 0" transform="matrix(1.333333 0 0 -1.333333 705.086 306.20427)" clip-path="url(#J)"/><path d="M0 0c-2.261-43.183-93.532-79.756-203.852-81.682S-401.767-50.163-399.505-6.98s93.53 79.751 203.849 81.68S2.268 43.183 0 0" transform="matrix(1.333333 0 0 -1.333333 702.87373 306.27853)" clip-path="url(#K)"/></g><path d="M0 0c-2.246-42.81-92.73-79.07-202.096-80.979-109.376-1.908-196.218 31.248-193.973 74.06s92.725 79.066 202.1 80.981C-84.6 75.971 2.245 42.813 0 0" transform="matrix(1.333333 0 0 -1.333333 700.58987 306.354)" clip-path="url(#L)" fill="#ce2333"/><g fill="#cf2333"><path d="M0 0c-2.228-42.442-91.921-78.381-200.351-80.272-108.421-1.902-194.507 30.97-192.288 73.412 2.227 42.44 91.926 78.382 200.345 80.276C-83.865 75.309 2.228 42.44 0 0" transform="matrix(1.333333 0 0 -1.333333 698.23827 306.35013)" clip-path="url(#M)"/><path d="M0 0c-2.204-42.072-91.117-77.694-198.594-79.574C-306.069-81.448-391.407-48.869-389.199-6.8s91.114 77.694 198.592 79.575S2.207 42.071 0 0" transform="matrix(1.333333 0 0 -1.333333 696.026 306.42693)" clip-path="url(#N)"/></g><path d="M0 0c-2.183-41.697-90.313-77.009-196.842-78.87S-387.951-48.438-385.766-6.739s90.316 77.01 196.837 78.874C-82.398 73.993 2.187 41.701 0 0" transform="matrix(1.333333 0 0 -1.333333 693.67453 306.42693)" clip-path="url(#O)" fill="#d12433"/><path d="M0 0c-2.167-41.323-89.509-76.324-195.09-78.172-105.578-1.842-189.41 30.163-187.242 71.49s89.508 76.329 195.088 78.174C-81.665 73.332 2.17 41.326 0 0" transform="matrix(1.333333 0 0 -1.333333 691.39187 306.49853)" clip-path="url(#P)" fill="#d12233"/><path d="M0 0c-2.149-40.954-88.705-75.639-193.34-77.465-104.63-1.832-187.707 29.894-185.561 70.847s88.707 75.639 193.338 77.467S2.146 40.961 0 0" transform="matrix(1.333333 0 0 -1.333333 689.11587 306.57533)" clip-path="url(#Q)" fill="#d32233"/><path d="M0 0c-2.13-40.59-87.903-74.954-191.588-76.766s-186.006 29.62-183.879 70.203 87.903 74.953 191.581 76.765C-80.198 72.013 2.125 40.582 0 0" transform="matrix(1.333333 0 0 -1.333333 686.83333 306.5676)" clip-path="url(#R)" fill="#d32232"/><path d="M0 0c-2.108-40.21-87.096-74.268-189.832-76.064-102.736-1.79-184.311 29.346-182.201 69.562s87.099 74.267 189.835 76.067C-79.463 71.358 2.108 40.214 0 0" transform="matrix(1.333333 0 0 -1.333333 684.48053 306.6444)" clip-path="url(#S)" fill="#d52232"/><path d="M0 0c-2.09-39.84-86.293-73.58-188.081-75.361S-370.685-46.28-368.598-6.441s86.294 73.583 188.079 75.363C-78.728 70.7 2.087 39.842 0 0" transform="matrix(1.333333 0 0 -1.333333 682.26947 306.6444)" clip-path="url(#T)" fill="#d52233"/><path d="M0 0c-2.072-39.471-85.493-72.898-186.336-74.658-100.834-1.761-180.903 28.805-178.832 68.28s85.49 72.896 186.327 74.66S2.063 39.475 0 0" transform="matrix(1.333333 0 0 -1.333333 679.9232 306.71853)" clip-path="url(#U)" fill="#d62233"/><path d="M0 0c-2.054-39.099-84.688-72.213-184.576-73.958S-363.78-45.417-361.728-6.318s84.686 72.207 184.574 73.955S2.048 39.102 0 0" transform="matrix(1.333333 0 0 -1.333333 677.63413 306.79147)" clip-path="url(#V)" fill="#d82233"/><path d="M0 0c-2.03-38.726-83.883-71.526-182.823-73.257S-360.326-44.991-358.294-6.259s83.88 71.524 182.818 73.253C-76.531 68.723 2.033 38.728 0 0" transform="matrix(1.333333 0 0 -1.333333 675.3568 306.78893)" clip-path="url(#W)" fill="#d81e33"/><path d="M0 0c-2.017-38.357-83.082-70.84-181.076-72.554S-356.873-44.559-354.862-6.203s83.078 70.842 181.07 72.554S2.008 38.356 0 0" transform="matrix(1.333333 0 0 -1.333333 673.0768 306.86187)" clip-path="url(#X)" fill="#d91e33"/><path d="M0 0c-1.992-37.985-82.274-70.158-179.317-71.851s-174.105 27.725-172.11 65.71 82.271 70.154 179.32 71.853C-75.064 67.404 1.989 37.987 0 0" transform="matrix(1.333333 0 0 -1.333333 670.7956 306.86187)" clip-path="url(#Y)" fill="#da2232"/><path d="M0 0c-1.979-37.616-81.468-69.471-177.566-71.145-96.097-1.68-172.399 27.453-170.428 65.069s81.472 69.47 177.569 71.146S1.973 37.617 0 0" transform="matrix(1.333333 0 0 -1.333333 668.51173 306.87227)" clip-path="url(#Z)" fill="#db2232"/><path d="M0 0c-1.944-37.246-80.664-68.784-175.811-70.446S-346.506-43.262-344.555-6.02s80.667 68.786 175.814 70.448S1.957 37.244 0 0" transform="matrix(1.333333 0 0 -1.333333 666.22267 306.94253)" clip-path="url(#a)" fill="#dc2232"/><path d="M0 0c-1.935-36.871-79.86-68.097-174.065-69.742-94.196-1.647-168.993 26.91-167.06 63.784s79.862 68.098 174.061 69.742S1.931 36.875 0 0" transform="matrix(1.333333 0 0 -1.333333 663.95053 306.94253)" clip-path="url(#b)" fill="#dd2232"/><path d="M0 0c-1.917-36.503-79.06-67.41-172.312-69.04S-339.601-42.399-337.687-5.9s79.057 67.412 172.306 69.042S1.912 36.503 0 0" transform="matrix(1.333333 0 0 -1.333333 661.66533 307.01547)" clip-path="url(#c)" fill="#dd2132"/><path d="M0 0c-1.893-36.128-78.251-66.726-170.554-68.34S-336.15-41.967-334.251-5.836C-332.36 30.292-256 60.888-163.702 62.503-71.391 64.114 1.896 36.128 0 0" transform="matrix(1.333333 0 0 -1.333333 659.3112 307.01547)" clip-path="url(#d)" fill="#df2231"/><path d="M0 0c-1.877-35.76-77.451-66.042-168.807-67.639-91.352-1.59-163.892 26.101-162.012 61.861s77.449 66.041 168.804 67.637S1.874 35.76 0 0" transform="matrix(1.333333 0 0 -1.333333 657.10413 307.0884)" clip-path="url(#e)" fill="#e02132"/><path d="M0 0c-1.856-35.391-76.65-65.356-167.058-66.932-90.405-1.583-162.187 25.821-160.336 61.211 1.862 35.392 76.649 65.359 167.059 66.938C-69.931 62.795 1.854 35.388 0 0" transform="matrix(1.333333 0 0 -1.333333 654.7552 307.16133)" clip-path="url(#f)" fill="#e02130"/><g fill="#e12131"><path d="M0 0c-1.834-35.016-75.84-64.669-165.301-66.233-89.453-1.564-160.483 25.56-158.652 60.575 1.839 35.016 75.843 64.668 165.305 66.231S1.839 35.019 0 0" transform="matrix(1.333333 0 0 -1.333333 652.4636 307.16133)" clip-path="url(#g)"/><path d="M0 0c-1.814-34.64-75.039-63.985-163.551-65.527s-158.785 25.285-156.97 59.928c1.818 34.648 75.042 63.986 163.548 65.534C-68.46 61.481 1.813 34.649 0 0" transform="matrix(1.333333 0 0 -1.333333 650.19147 307.23813)" clip-path="url(#h)"/></g><path d="M0 0c-1.797-34.27-74.233-63.298-161.798-64.824-87.559-1.53-157.084 25.012-155.286 59.288s74.235 63.3 161.795 64.826C-67.729 60.822 1.799 34.277 0 0" transform="matrix(1.333333 0 0 -1.333333 647.90627 307.23813)" clip-path="url(#i)" fill="#e22130"/><path d="M0 0c-1.778-33.902-73.43-62.618-160.047-64.128-86.611-1.508-155.38 24.742-153.604 58.646s73.432 62.615 160.043 64.127S1.78 33.903 0 0" transform="matrix(1.333333 0 0 -1.333333 645.556 307.30587)" clip-path="url(#j)" fill="#e32130"/><path d="M0 0c-1.756-33.53-72.628-61.929-158.293-63.428-85.662-1.493-153.681 24.47-151.921 58.007s72.626 61.926 158.285 63.424C-66.257 59.502 1.762 33.532 0 0" transform="matrix(1.333333 0 0 -1.333333 643.34373 307.3788)" clip-path="url(#k)" fill="#e32131"/><path d="M0 0c-1.737-33.158-71.829-61.243-156.542-62.722s-151.98 24.201-150.242 57.36 71.82 61.244 156.54 62.724C-65.532 58.842 1.738 33.162 0 0" transform="matrix(1.333333 0 0 -1.333333 640.99613 307.3788)" clip-path="url(#l)" fill="#e42130"/><path d="M0 0c-1.72-32.787-71.02-60.557-154.787-62.021S-305.066-38.092-303.345-5.298-232.33 55.26-148.562 56.723 1.72 32.793 0 0" transform="matrix(1.333333 0 0 -1.333333 638.7096 307.4556)" clip-path="url(#m)" fill="#e52030"/><path d="M0 0c-1.695-32.418-70.212-59.871-153.031-61.318s-148.581 23.661-146.88 56.08 70.212 59.865 153.035 61.316S1.701 32.418 0 0" transform="matrix(1.333333 0 0 -1.333333 636.4284 307.45173)" clip-path="url(#n)" fill="#e82030"/><path d="M0 0c-1.68-32.044-69.412-59.183-151.279-60.617-81.874-1.429-146.878 23.388-145.2 55.435s69.412 59.189 151.285 60.62S1.682 32.048 0 0" transform="matrix(1.333333 0 0 -1.333333 634.14587 307.52587)" clip-path="url(#o)" fill="#e92030"/><path d="M0 0c-1.659-31.672-68.603-58.498-149.527-59.915S-294.701-36.799-293.039-5.118s68.604 58.5 149.525 59.916C-62.59 56.208 1.664 31.678 0 0" transform="matrix(1.333333 0 0 -1.333333 631.9336 307.60147)" clip-path="url(#p)" fill="#ea2031"/><path d="M0 0c-1.573-30.042-65.071-55.491-141.831-56.828-76.756-1.344-137.704 21.927-136.127 51.969 1.575 30.048 65.077 55.49 141.83 56.831C-59.367 53.313 1.575 30.048 0 0" transform="matrix(1.333333 0 0 -1.333333 621.832 307.686)" clip-path="url(#q)" fill="#eb2130"/><path d="M0 0c-1.51-28.796-62.361-53.179-135.927-54.46-73.554-1.295-131.964 21.01-130.452 49.803s62.364 53.176 135.923 54.463S1.511 28.793 0 0" transform="matrix(1.333333 0 0 -1.333333 614.0924 307.8996)" clip-path="url(#r)" fill="#eb2331"/><path d="M0 0c-1.446-27.54-59.652-50.866-130.012-52.096S-256.243-31.993-254.799-4.452s59.653 50.864 130.008 52.094C-54.422 48.869 1.444 27.543 0 0" transform="matrix(1.333333 0 0 -1.333333 606.3516 307.9764)" clip-path="url(#s)" fill="#ec2432"/><path d="M0 0c-1.377-26.288-56.939-48.55-124.101-49.725S-244.59-30.541-243.211-4.249s56.939 48.55 124.101 49.727C-51.946 46.648 1.379 26.291 0 0" transform="matrix(1.333333 0 0 -1.333333 598.60413 308.12227)" clip-path="url(#t)" fill="#ed2632"/><path d="M0 0c-1.314-25.035-54.227-46.24-118.194-47.359-63.961-1.117-114.747 18.273-113.435 43.31s54.229 46.245 118.192 47.362S1.312 25.042 0 0" transform="matrix(1.333333 0 0 -1.333333 590.92973 308.19907)" clip-path="url(#u)" fill="#ed2832"/><path d="M0 0c-1.246-23.786-51.516-43.927-112.284-44.991S-221.295-27.632-220.049-3.847s51.518 43.932 112.279 44.992C-47.001 42.208 1.244 23.785 0 0" transform="matrix(1.333333 0 0 -1.333333 583.1888 308.41267)" clip-path="url(#v)" fill="#ed2932"/><path d="M0 0c-1.184-22.534-48.807-41.618-106.375-42.624S-209.651-26.179-208.471-3.646s48.806 41.618 106.375 42.625S1.181 22.537 0 0" transform="matrix(1.333333 0 0 -1.333333 575.44787 308.5532)" clip-path="url(#w)" fill="#ed2b32"/><path d="M0 0c-1.117-21.283-46.096-39.3-100.465-40.252s-97.539 15.532-96.424 36.814 46.097 39.303 100.468 40.254S1.118 21.283 0 0" transform="matrix(1.333333 0 0 -1.333333 567.70707 308.63267)" clip-path="url(#x)" fill="#ed2d33"/><path d="M0 0c-1.049-20.031-43.383-36.993-94.553-37.89-51.172-.89-91.804 14.618-90.751 34.65s43.383 36.992 94.557 37.883C-39.577 35.541 1.054 20.03 0 0" transform="matrix(1.333333 0 0 -1.333333 560.02867 308.77067)" clip-path="url(#y)" fill="#ed2e34"/><path d="M0 0c-.98-18.777-40.67-34.679-88.641-35.521-47.969-.836-86.06 13.706-85.083 32.487.99 18.777 40.678 34.68 88.648 35.518S.986 18.781 0 0" transform="matrix(1.333333 0 0 -1.333333 552.35813 308.92427)" clip-path="url(#z)" fill="#ed3034"/><path d="M0 0c-.925-17.527-37.969-32.367-82.739-33.148-44.776-.782-80.326 12.788-79.409 30.314s37.959 32.37 82.738 33.151C-34.637 31.103.911 17.526 0 0" transform="matrix(1.333333 0 0 -1.333333 544.62627 309.06627)" clip-path="url(#AA)" fill="#ed3134"/><path d="M0 0c-.856-16.279-35.255-30.064-76.828-30.788s-74.59 11.872-73.738 28.15c.855 16.272 35.25 30.055 76.826 30.783S.851 16.269 0 0" transform="matrix(1.333333 0 0 -1.333333 536.8828 309.2004)" clip-path="url(#AB)" fill="#ed3235"/><path d="M0 0c-.785-15.022-32.534-27.75-70.915-28.418s-68.851 10.962-68.063 25.987 32.536 27.743 70.913 28.415S.788 15.019 0 0" transform="matrix(1.333333 0 0 -1.333333 529.20187 309.27973)" clip-path="url(#AC)" fill="#ed3435"/><path d="M0 0c-.723-13.773-29.827-25.435-65.011-26.051-35.176-.611-63.111 10.048-62.386 23.819s29.826 25.435 65.005 26.05S.721 13.771 0 0" transform="matrix(1.333333 0 0 -1.333333 521.4636 309.4972)" clip-path="url(#AD)" fill="#ed3536"/><path d="M0 0c-.655-12.518-27.114-23.121-59.101-23.681-31.977-.56-57.373 9.137-56.717 21.655s27.114 23.12 59.097 23.679S.653 12.518 0 0" transform="matrix(1.333333 0 0 -1.333333 513.72 309.574)" clip-path="url(#AE)" fill="#ed3636"/><path d="M0 0c-.593-11.266-24.411-20.811-53.195-21.313s-51.638 8.225-51.045 19.489 24.403 20.815 53.187 21.314S.585 11.269 0 0" transform="matrix(1.333333 0 0 -1.333333 505.98573 309.71853)" clip-path="url(#AF)" fill="#ed3836"/><path d="M0 0c-.525-10.013-21.694-18.491-47.277-18.942S-93.18-11.637-92.65-1.622c.524 10.018 21.689 18.496 47.275 18.944S.525 10.014 0 0" transform="matrix(1.333333 0 0 -1.333333 498.30213 309.86053)" clip-path="url(#AG)" fill="#ef3937"/><path d="M0 0c-.452-8.769-18.976-16.187-41.362-16.577s-40.164 6.396-39.705 15.156c.462 8.766 18.979 16.186 41.371 16.58C-17.313 15.547.462 8.759 0 0" transform="matrix(1.333333 0 0 -1.333333 490.556 310.0076)" clip-path="url(#AH)" fill="#ef3a38"/><path d="M0 0c-.396-7.514-16.27-13.875-35.464-14.209-19.186-.335-34.421 5.48-34.029 12.99.397 7.511 16.27 13.875 35.461 14.212S.388 7.506 0 0" transform="matrix(1.333333 0 0 -1.333333 482.82027 310.15213)" clip-path="url(#AI)" fill="#ef3b38"/><path d="M0 0c-.333-6.257-13.559-11.56-29.551-11.836-15.992-.281-28.688 4.568-28.358 10.82.328 6.269 13.557 11.564 29.541 11.846C-12.37 11.108.326 6.262 0 0" transform="matrix(1.333333 0 0 -1.333333 475.07813 310.2316)" clip-path="url(#AJ)" fill="#ef3d39"/><path d="M0 0c-.262-5.01-10.846-9.252-23.639-9.472-12.788-.227-22.947 3.652-22.686 8.659s10.845 9.247 23.641 9.474S.265 5.007 0 0" transform="matrix(1.333333 0 0 -1.333333 467.3984 310.3684)" clip-path="url(#AK)" fill="#ef3e39"/><path d="M0 0c-.195-3.754-8.131-6.935-17.727-7.101S-34.94-4.362-34.744-.604-26.61 6.33-17.014 6.5.198 3.761 0 0" transform="matrix(1.333333 0 0 -1.333333 459.65627 310.59093)" clip-path="url(#AL)" fill="#ef3f38"/><path d="M0 0c-.132-2.502-5.42-4.626-11.818-4.736s-11.48 1.824-11.351 4.329 5.427 4.622 11.823 4.736S.131 2.501 0 0" transform="matrix(1.333333 0 0 -1.333333 451.918 310.66267)" clip-path="url(#AM)" fill="#ef403a"/><path d="M0 0c-.069-1.252-2.709-2.313-5.915-2.37-3.198-.058-5.735.913-5.669 2.162.063 1.256 2.711 2.312 5.909 2.37S.068 1.255 0 0" transform="matrix(1.333333 0 0 -1.333333 444.17707 310.80453)" clip-path="url(#AN)" fill="#ef403b"/><g fill="#fff"><path d="M0 0l7.59 23.239L7.692 0h8.626v35.347H3.864l-7.295-23.068-7.34 23.068H-23.24V0h8.645v23.239L-6.904 0zm-188.249 17.604c0 6.074 2.261 11.196 7.93 11.196s7.937-5.122 7.937-11.196c0-5.775-2.264-11.198-7.937-11.198s-7.93 5.423-7.93 11.198m-9.638 0c0-11.146 6.122-18.129 17.568-18.129s17.574 6.983 17.574 18.129c0 11.246-6.026 18.124-17.574 18.124s-17.568-6.878-17.568-18.124m76.409-7.367c-.052 4.872 6.015 5.025 10.29 5.025h4.135c0-2.468-.19-3.732-1.76-5.697-1.493-1.899-3.643-3.146-6.613-3.367-3.408-.25-6.017 1.054-6.052 4.039m6.356 18.461c5.625.182 8.223-1.535 8.223-7.166h-5.272c-3.989 0-8.185-.34-11.814-2.031-3.634-1.701-6.271-4.584-6.271-9.808 0-6.646 6.337-10.381 12.819-10.381 4.344 0 8.616 1.335 10.823 5.199h.142c.075-1.083.075-2.545.427-4.384h8.739c-.212 2.718-.355 5.158-.425 7.8l-.143 8.756v4.471c0 10.316-4.579 14.725-16.148 14.725-6.209 0-11.862-2.509-13.421-4.161 1.256-1.612 2.813-3.251 4.254-4.887.201-.226.472-.633.647-.648.081-.006 3.422 2.389 7.42 2.515M-228.257.08h9.338v15.917c.101 0 2.146-1.174 5.34-6.618l5.653-9.299h11.901s-2.348 3.078-7.206 10.459c-3.839 5.833-6.75 8.267-6.75 8.267s.772.227 5.242 6.102l7.711 10.218h-11.243l-6.544-9.514c-2.636-3.714-4.003-4.797-4.003-4.797l-.101 14.311h-9.338zm147.33 28.298l.626.015c3.508 0 6.772-.261 6.772-3.885 0-3.813-3.809-3.813-6.772-3.813h-3.433v7.555s.315.069 2.807.128m3.544 6.998c6.876-.129 12.87-2.976 12.904-9.639.021-4.619-2.913-8.049-7.151-9.223.34-.277.653-.474.961-.692 2.137-1.491 3.425-4.084 4.44-6.747C-65.227 6.44-62.552.04-62.552.04h-9.613c-3.52 9.714-3.789 10.361-5.756 12.632-1.402 1.614-4.963 1.213-5.813 1.213L-83.72.082h-8.873v35.105l7.812.16c3.849.077 7.398.029 7.398.029m-55.533-3.663c-1.268-1.624-2.783-3.273-4.239-4.918-.195-.228-.47-.633-.644-.648-.205-.019-1.015.558-1.333.726-2.106 1.094-4.998 2.244-8.19 1.652-1.22-.228-2.563-.867-3.067-1.897-.879-1.797.86-3.035 2.14-3.629.88-.408 1.856-.645 2.825-1.009 5.581-1.794 12.446-3.047 12.992-9.888.033-.401.033-.849 0-1.291-.512-6.48-4.936-10.069-11.016-11.172-3.271-.596-6.961-.372-10.048.32-2.995.676-5.763 1.637-7.904 3.148 1.225 2.457 2.62 4.746 3.953 7.102 3.183-1.662 7.134-3.817 12.141-3.355 1.348.132 3.008.728 3.433 2.022.199.63.127 1.441-.126 1.894-.797 1.451-2.954 2.056-4.839 2.583-3.957 1.11-7.76 2.096-10.446 4.399a8 8 0 0 0-2.706 4.722c-.399 2.184.011 4.279.644 5.851.635 1.584 1.517 2.845 2.825 3.913 2.485 2.035 5.834 3.352 9.966 3.547 6.029.289 10.45-1.316 13.639-4.072m71.04-14.064c0-11.183 6.149-18.183 17.63-18.183s17.63 7 17.63 18.183c0 11.279-6.045 18.185-17.63 18.185s-17.63-6.906-17.63-18.185m9.673 0c0 6.093 2.264 11.231 7.957 11.231s7.959-5.138 7.959-11.231c0-5.793-2.268-11.233-7.959-11.233s-7.957 5.44-7.957 11.233" transform="matrix(1.333333 0 0 -1.333333 555.96093 376.716)" clip-path="url(#AO)" fill-rule="evenodd"/><path d="M0 0h.736v2.921h1.405L4.077 0h.868L3.013 2.921c.885.149 1.647.678 1.647 1.837 0 1.179-.646 1.823-2.133 1.823H0zm.736 5.909H2.37c.791 0 1.546-.241 1.546-1.151 0-.919-.678-1.159-1.546-1.159H.736zm-3.43-2.615c0 2.789 2.211 5.002 4.934 5.002s4.938-2.213 4.938-5.002S4.965-1.709 2.24-1.709-2.694.501-2.694 3.294m-.807 0A5.73 5.73 0 0 1 2.24-2.449c3.176 0 5.741 2.564 5.741 5.743S5.416 9.031 2.24 9.031a5.73 5.73 0 0 1-5.741-5.737" transform="matrix(1.333333 0 0 -1.333333 588.18613 334.37227)" clip-path="url(#AP)"/></g><g fill="#b10f1f"><path d="M0 0c-.92.358-1.431.519-2.37.519-1.011 0-2.206-.359-2.206-1.685 0-2.425 5.43-1.868 5.43-6.025 0-2.701-2.086-3.771-4.617-3.771-.885 0-1.758.254-2.584.532l.177 1.679c.616-.253 1.698-.615 2.625-.615 1.03 0 2.48.583 2.48 2.065 0 2.825-5.433 2.051-5.433 5.971 0 2.246 1.778 3.443 4.057 3.443.835 0 1.83-.15 2.697-.458z" transform="matrix(1.333333 0 0 -1.333333 237.91667 493.9712)" clip-path="url(#AQ)"/><path d="M0 0l-2.512-6.259h5.029zm-.883 1.704h1.899l5.341-12.633H4.384L3.101-7.745h-6.192l-1.284-3.184h-1.9z" transform="matrix(1.333333 0 0 -1.333333 253.66867 493.71987)" clip-path="url(#AR)"/><path d="M0 0h-2.262l-4.76 12.633h2.026l3.889-11.038h.037l3.999 11.038h1.9z" transform="matrix(1.333333 0 0 -1.333333 275.8756 508.29147)" clip-path="url(#AS)"/><path d="M0 0c0-3.55-1.792-5.459-4.908-5.459-3.105 0-4.9 1.909-4.9 5.459v7.396H-8V.23c0-2.424.758-4.093 3.092-4.093S-1.809-2.194-1.809.23v7.166H0z" transform="matrix(1.333333 0 0 -1.333333 302.5312 501.3084)" clip-path="url(#AT)"/><path d="M0 0h1.533c1.719 0 2.735.756 2.735 1.977 0 1.133-.866 1.858-2.534 1.858H0zm-1.812 5.43h3.095c2.494 0 4.9-.398 4.9-3.421 0-1.537-1.134-2.617-2.602-2.876v-.039c.561-.215.829-.49 1.229-1.269L7.2-7.203H5.136L3.202-2.825c-.563 1.227-1.16 1.227-2.121 1.227H0v-5.605h-1.812z" transform="matrix(1.333333 0 0 -1.333333 313.946 498.68733)" clip-path="url(#AU)"/><path d="M0 0h7.078v-1.595H1.813v-3.69h4.796v-1.592H1.813v-4.161h5.265v-1.595H0z" transform="matrix(1.333333 0 0 -1.333333 331.3548 491.44773)" clip-path="url(#AV)"/><path d="M0 0l-2.518-6.259h5.033zm-.889 1.704h1.902l5.341-12.633H4.381L3.093-7.745h-6.189l-1.284-3.184h-1.899z" transform="matrix(1.333333 0 0 -1.333333 355.9948 493.71987)" clip-path="url(#AW)"/><path d="M0 0l6.552 9.404H.221v1.595h8.412V9.372L2.102-.039h6.636v-1.595H0z" transform="matrix(1.333333 0 0 -1.333333 370.34507 506.11307)" clip-path="url(#AX)"/><path d="M0 0l-2.518-6.259h5.035zm-.884 1.704h1.899l5.342-12.633H4.385L3.1-7.745h-6.196l-1.279-3.184h-1.904z" transform="matrix(1.333333 0 0 -1.333333 396.47267 493.71987)" clip-path="url(#AY)"/><path d="M0 0h1.898c3.114 0 4.826 1.502 4.826 4.767 0 2.937-2.007 4.676-4.612 4.676H0zm-1.812 11.038h3.729c3.738 0 6.729-2.319 6.729-6.208 0-4.237-2.571-6.425-6.729-6.425h-3.729z" transform="matrix(1.333333 0 0 -1.333333 426.0104 506.1652)" clip-path="url(#AZ)"/><path d="M334.487 255.034h1.809v-12.633h-1.809z" transform="matrix(1.333333 0 0 -1.333333 0 831.49333)" clip-path="url(#Aa)"/><path d="M0 0h6.715v-1.595H1.814v-3.69h4.682v-1.592H1.814v-5.756H0z" transform="matrix(1.333333 0 0 -1.333333 457.3672 491.44773)" clip-path="url(#Ab)"/><path d="M0 0h7.079v-1.595H1.816v-3.69h4.796v-1.592H1.816v-4.161h5.263v-1.595H0z" transform="matrix(1.333333 0 0 -1.333333 474.51427 491.44773)" clip-path="url(#Ac)"/><path d="M0 0h1.538c1.719 0 2.729.756 2.729 1.977 0 1.133-.864 1.858-2.537 1.858H0zm-1.805 5.43h3.086c2.505 0 4.907-.398 4.907-3.421 0-1.537-1.139-2.617-2.605-2.876v-.039c.558-.215.831-.49 1.226-1.269l2.385-5.028H5.135L3.2-2.825c-.566 1.227-1.158 1.227-2.11 1.227H0v-5.605h-1.805z" transform="matrix(1.333333 0 0 -1.333333 494.9088 498.68733)" clip-path="url(#Ad)"/><path d="M0 0h7.08v-1.595H1.816v-3.69h4.79v-1.592h-4.79v-4.161H7.08v-1.595H0z" transform="matrix(1.333333 0 0 -1.333333 512.3216 491.44773)" clip-path="url(#Ae)"/><path d="M0 0h2.465l5.568-10.17h.038V0h1.811v-12.633H7.565L1.85-2.242h-.043v-10.391H0z" transform="matrix(1.333333 0 0 -1.333333 530.41933 491.44773)" clip-path="url(#Af)"/><path d="M0 0h-3.929v1.595h9.663V0H1.803v-11.038H0z" transform="matrix(1.333333 0 0 -1.333333 556.04427 493.574)" clip-path="url(#Ag)"/><path d="M0 0l-2.521-6.259h5.029zm-.894 1.704h1.905l5.338-12.633H4.372L3.091-7.745h-6.184l-1.288-3.184h-1.905z" transform="matrix(1.333333 0 0 -1.333333 576.12107 493.71987)" clip-path="url(#Ah)"/><path d="M0 0c.195-.929.852-1.448 1.811-1.448S3.438-.929 3.656 0h1.121c-.108-1.644-1.339-2.758-2.966-2.758C.195-2.758-1.051-1.644-1.121 0z" transform="matrix(1.333333 0 0 -1.333333 394.1524 484.84493)" clip-path="url(#Ai)"/><path d="M0 0h1.644L.383-3.629H-.934z" transform="matrix(1.333333 0 0 -1.333333 555.9688 512.02453)" clip-path="url(#Aj)"/><path d="M0 0h1.217c.785 0 1.286.16 1.286.98 0 .708-.631.916-1.286.916H0zm-1.021 2.694h2.39c1.446 0 2.156-.577 2.156-1.758 0-1.006-.635-1.724-1.619-1.724l1.781-2.776H2.612L.86-.788H0v-2.776h-1.021zm2.055-7.677c2.464 0 4.312 1.985 4.312 4.545S3.498 4.106 1.034 4.106c-2.482 0-4.337-1.989-4.337-4.544 0-2.56 1.855-4.545 4.337-4.545m-.015 9.884c2.955 0 5.354-2.396 5.354-5.339a5.36 5.36 0 0 0-5.354-5.35c-2.943 0-5.34 2.402-5.34 5.35a5.35 5.35 0 0 0 5.34 5.339" transform="matrix(1.333333 0 0 -1.333333 593.74213 491.62747)" clip-path="url(#Ak)"/></g></svg>