<svg xmlns="http://www.w3.org/2000/svg" height="124.739" width="300" xmlns:v="https://vecta.io/nano"><defs><clipPath id="A"><path d="M436.614 45.151h113.307v45.911H436.614V45.151z"/></clipPath><clipPath ><path d="M122.572 238.68h349.92v-66.24h-349.92v66.24z"/></clipPath><clipPath ><path d="M137.669 266.178h315.36v-34.56h-315.36v34.56z"/></clipPath><path id="D" d="M460.638 45.238h-2.617v3.041h2.526v-.541h-2.054v-.652h1.429v-.54h-1.429v-.767h2.145v-.541z"/></defs><g clip-path="url(#A)" transform="matrix(4.213856 0 0 -4.213856 -1853.789025 314.998379)"><g fill="#231f20"><path d="M471.782 63.874c0 .895-.469 1.377-1.478 1.377h-5.299v-2.742h5.057c1.18 0 1.72.511 1.72 1.365m-1.606 3.14c.896 0 1.308.625 1.308 1.293 0 .739-.469 1.335-1.422 1.335h-5.057v-2.628h5.171zm2.174-.739c.938-.484 1.479-1.379 1.479-2.401 0-1.763-1.28-3.127-3.723-3.127h-7.062v10.657h7.018c1.962 0 3.383-1.193 3.383-2.998 0-.924-.399-1.592-1.095-2.131m10.586.169c1.237 0 1.934.639 1.934 1.564 0 1.008-.611 1.634-1.719 1.634h-4.875v-3.198h4.66zm-1.477-1.776h-3.183v-3.921h-1.975v10.657h6.85c2.272 0 3.679-1.393 3.679-3.396 0-1.904-1.378-3.041-3.055-3.282l3.169-3.979h-2.473l-3.012 3.921zm13.044-2.13c2.316 0 3.496 1.521 3.496 3.553 0 1.989-1.18 3.523-3.496 3.523h-3.609v-7.076h3.609zm0 8.867c3.354 0 5.542-2.117 5.542-5.314 0-2.956-2.331-5.344-5.245-5.344h-5.882v10.658h5.585z"/></g><g fill-rule="evenodd"><path d="M439.927 74.753h17.513v-8.931h-17.513v8.931z" fill="#ed1a3a"/><path d="M439.927 65.997h17.513v-8.755h-17.513v8.755z" fill="#231f20"/><path d="M442.981 66.529h11.392v-1.064h-11.392v1.064z" fill="#fff"/></g><g fill="#231f20"><path d="M443.159 46.903v-.093c0-.493-.144-.893-.433-1.198s-.673-.461-1.152-.461c-.433 0-.795.134-1.087.401-.341.309-.511.714-.511 1.214 0 .493.17.895.511 1.205.297.272.669.409 1.114.409.538 0 .984-.235 1.337-.706l-.448-.275c-.248.293-.554.441-.918.441-.322 0-.588-.102-.796-.305s-.312-.462-.312-.771c0-.319.101-.58.305-.78s.47-.302.803-.302c.499 0 .831.226.994.681h-1.096v.54h1.689zm2.575-.01c.287 0 .43.138.43.41 0 .289-.153.435-.458.435h-1.39v-.845h1.418zm.972-1.656h-.545l-.636 1.116h-1.209v-1.116h-.473v3.041h1.963c.258 0 .464-.087.616-.261s.23-.409.23-.703c0-.504-.201-.812-.603-.924l.657-1.153zm3.229 1.527c0 .314-.103.57-.309.773s-.472.303-.797.303-.595-.102-.803-.305a1.04 1.04 0 0 1-.311-.771c0-.323.101-.583.305-.782s.473-.3.809-.3.6.1.803.3.303.459.303.782m.492.002c0-.498-.17-.901-.51-1.214-.29-.267-.653-.401-1.088-.401s-.799.134-1.091.401c-.341.309-.511.714-.511 1.214a1.55 1.55 0 0 0 .514 1.206 1.57 1.57 0 0 0 1.088.408c.422 0 .784-.137 1.084-.408.343-.313.514-.715.514-1.206m3.486-.527c0-.32-.128-.581-.383-.783s-.599-.304-1.029-.304-.777.101-1.033.304a.95.95 0 0 0-.383.783v2.04h.472v-1.923c0-.449.315-.673.944-.673s.939.224.939.673v1.923h.473v-2.04zm2.693.654c.287 0 .43.138.43.41 0 .289-.152.435-.457.435h-1.391v-.845h1.418zm.073 1.385c.258 0 .463-.087.615-.261s.23-.409.23-.704c0-.306-.08-.543-.239-.709s-.388-.251-.686-.251h-1.411v-1.116h-.473v3.041h1.964z"/><use href="#D"/><path d="M464.64 47.527a1.86 1.86 0 0 1-1.033.308c-.542 0-.813-.12-.813-.36 0-.141.102-.234.305-.276l.831-.094c.399-.05.683-.138.852-.267.187-.141.281-.356.281-.646 0-.325-.117-.578-.35-.755s-.572-.267-1.013-.267c-.625 0-1.125.179-1.499.533l.257.421a1.81 1.81 0 0 1 1.232-.438c.274 0 .486.044.636.133s.225.201.225.347c0 .16-.092.274-.277.34-.102.036-.262.06-.478.074l-.621.044c-.3.037-.522.117-.664.243s-.214.306-.214.546c0 .29.114.52.343.69s.548.253.959.253c.549 0 .993-.147 1.333-.444l-.292-.385zm3.573-.763c0 .314-.102.57-.308.773s-.472.303-.798.303-.595-.102-.803-.305a1.04 1.04 0 0 1-.311-.771c0-.323.102-.583.305-.782s.473-.3.809-.3.601.1.804.3.302.459.302.782m.492.002c0-.498-.169-.901-.509-1.214-.29-.267-.653-.401-1.088-.401a1.56 1.56 0 0 0-1.092.401c-.34.309-.51.714-.51 1.214a1.55 1.55 0 0 0 .514 1.206 1.57 1.57 0 0 0 1.088.408c.422 0 .783-.137 1.084-.408a1.56 1.56 0 0 0 .513-1.206m3.594.781l-.436-.187a1.22 1.22 0 0 1-.992.485c-.346 0-.622-.099-.827-.298a1.03 1.03 0 0 1-.309-.773c0-.326.103-.588.309-.785s.483-.298.835-.298c.405 0 .737.167.993.497l.407-.271c-.358-.503-.829-.756-1.411-.756-.485 0-.877.151-1.177.453s-.449.686-.449 1.157a1.55 1.55 0 0 0 .511 1.201c.295.269.657.403 1.087.403.603 0 1.09-.276 1.459-.828m1.14-2.309h-.473v3.041h.473v-3.041zm3.45 0h-2.618v3.041h2.527v-.541h-2.054v-.652h1.429v-.54h-1.429v-.767h2.145v-.541zm3.093 2.5h-1.163v-2.5h-.473v2.5h-1.163v.541h2.799v-.541zm3.134-2.5h-2.617v3.041h2.526v-.541h-2.054v-.652h1.43v-.54h-1.43v-.767h2.145v-.541zm4.836 1.665v-.093c0-.493-.145-.893-.433-1.198s-.673-.461-1.153-.461c-.432 0-.795.134-1.087.401-.34.309-.51.714-.51 1.214 0 .493.17.895.51 1.205.298.272.67.409 1.115.409.538 0 .984-.235 1.337-.706l-.448-.275c-.248.293-.554.441-.918.441-.322 0-.588-.102-.796-.305s-.312-.462-.312-.771c0-.319.101-.58.305-.78s.47-.302.803-.302a.96.96 0 0 1 .995.681h-1.097v.54h1.689zm3.301-1.665h-2.617v3.041h2.526v-.541h-2.053v-.652h1.428v-.54h-1.428v-.767h2.144v-.541zm3.446 0h-.706l-1.655 2.536v-2.536h-.472v3.041h.707l1.653-2.532v2.532h.473v-3.041zm3.45 0h-2.617v3.041h2.526v-.541h-2.054v-.652h1.429v-.54h-1.429v-.767h2.145v-.541zm2.503 1.655c.287 0 .431.138.431.41 0 .289-.153.435-.459.435h-1.39v-.845h1.418zm.971-1.656h-.544l-.635 1.116h-1.21v-1.116h-.473v3.041h1.964c.258 0 .463-.087.616-.261s.229-.409.229-.703c0-.504-.201-.812-.603-.924l.656-1.153zm2.504 1.193l-.576 1.346-.581-1.346h1.157zm1.041-1.192h-.522l-.278.651h-1.639l-.279-.651h-.521l1.325 3.04h.588l1.326-3.04zm2.822 0h-2.353v3.041h.473v-2.5h1.88v-.541zm3.131 0h-2.617v3.041h2.527v-.541h-2.054v-.652h1.429v-.54h-1.429v-.767h2.144v-.541z"/></g></g></svg>